<svg width="1540" height="542" viewBox="0 0 1540 542" fill="none" xmlns="http://www.w3.org/2000/svg">
<path fill-rule="evenodd" clip-rule="evenodd" d="M335.388 93.5425C360.306 93.5427 382.865 103.64 399.199 119.964C406.656 117.97 414.493 116.906 422.579 116.906C472.432 116.906 512.846 157.32 512.846 207.172C512.846 215.258 511.781 223.096 509.787 230.553C526.112 246.887 536.209 269.446 536.209 294.364C536.209 336.131 507.841 371.272 469.322 381.573C459.021 420.091 423.881 448.458 382.114 448.458C357.197 448.458 334.636 438.362 318.302 422.038C310.846 424.032 303.008 425.097 294.923 425.097C245.07 425.097 204.656 384.682 204.656 334.83C204.656 326.744 205.719 318.905 207.714 311.448C191.389 295.114 181.293 272.555 181.293 247.638C181.293 205.871 209.66 170.73 248.179 160.429C258.48 121.91 293.621 93.5425 335.388 93.5425ZM289.933 215.379C286.192 208.618 277.676 206.17 270.915 209.911C264.153 213.652 261.705 222.167 265.446 228.928L290.102 273.486L265.58 315.843C261.708 322.531 263.991 331.091 270.678 334.963C277.366 338.835 285.928 336.553 289.8 329.865L316.68 283.433L316.995 282.869C320.04 277.186 320.107 270.367 317.172 264.626L316.868 264.056L289.933 215.379ZM371.177 307.745C363.45 307.745 357.185 314.01 357.185 321.738C357.185 329.466 363.45 335.731 371.177 335.731H437.862C445.59 335.731 451.855 329.465 451.855 321.738C451.855 314.01 445.59 307.745 437.862 307.745H371.177Z" fill="black"/>
<path d="M717.153 361.214C667.403 361.214 626.903 320.714 626.903 270.964C626.903 221.214 667.403 180.714 717.153 180.714C766.403 180.714 794.153 217.714 798.903 243.714H762.153C754.153 224.714 735.903 213.214 716.153 213.214H715.153C685.903 213.214 662.403 239.214 662.403 270.964C662.403 302.714 685.903 328.714 715.153 328.714H716.153C735.903 328.714 754.153 317.214 762.153 298.214H798.903C794.153 324.214 766.403 361.214 717.153 361.214Z" fill="black"/>
<path d="M876.962 361.214C838.462 361.214 810.212 331.964 810.212 295.714C810.212 259.464 838.462 230.714 876.962 230.714C915.462 230.714 943.712 259.464 943.712 295.714C943.712 331.964 915.462 361.214 876.962 361.214ZM877.462 332.464C895.712 332.464 911.212 317.714 911.212 295.714C911.212 273.714 895.712 259.464 877.462 259.464H876.462C858.212 259.464 842.712 273.714 842.712 295.714C842.712 317.714 858.212 332.464 876.462 332.464H877.462Z" fill="black"/>
<path d="M1016.98 361.214C981.981 361.214 954.981 332.464 954.981 295.964C954.981 259.464 981.981 230.714 1016.98 230.714C1034.48 230.714 1047.73 237.964 1054.98 246.464V183.464H1087.48V358.464H1054.98V345.464C1047.73 353.964 1034.48 361.214 1016.98 361.214ZM1022.23 332.464C1040.48 332.464 1055.98 317.714 1055.98 295.714C1055.98 273.714 1040.48 259.464 1022.23 259.464H1021.23C1002.98 259.464 987.481 273.714 987.481 295.714C987.481 317.714 1002.98 332.464 1021.23 332.464H1022.23Z" fill="black"/>
<path d="M1171.09 361.214C1134.09 361.214 1107.09 334.464 1107.09 296.464C1107.09 258.464 1135.59 230.714 1171.09 230.714C1206.59 230.714 1234.09 256.214 1234.09 298.464C1234.09 301.214 1234.09 303.964 1233.84 306.964H1139.59C1140.09 318.464 1151.09 334.964 1169.84 334.964H1170.84C1184.59 334.964 1195.09 327.464 1199.34 319.214H1232.34C1226.59 338.464 1206.84 361.214 1171.09 361.214ZM1200.84 283.214C1199.84 269.964 1188.34 256.964 1170.84 256.964H1169.84C1153.84 256.964 1142.34 269.714 1139.84 283.214H1200.84Z" fill="black"/>
<path d="M1232.15 358.464L1277.4 295.464L1233.4 233.464H1270.4L1295.65 270.214L1320.9 233.464H1357.15L1313.15 294.714L1358.4 358.464H1321.15L1294.9 319.964L1268.15 358.464H1232.15Z" fill="black"/>
</svg>
