<?xml version="1.0" encoding="UTF-8"?>
<svg xmlns="http://www.w3.org/2000/svg" version="1.1" viewBox="0 0 1300.54 467.35">
  <defs>
    <style>
      .cls-1 {
        fill: #414042;
      }

      .cls-2 {
        fill: #232323;
      }
    </style>
  </defs>
  <!-- Generator: Adobe Illustrator 28.7.1, SVG Export Plug-In . SVG Version: 1.2.0 Build 142)  -->
  <g>
    <g id="Layer_1">
      <g>
        <path class="cls-1" d="M153.58,339.91h0c-.61,0-1.16-.33-1.46-.86l-36.86-64.87c-.3-.52-.29-1.17,0-1.69.3-.52.86-.84,1.46-.84h74.63c.61,0,1.17.32,1.47.85s.3,1.17,0,1.7l-37.77,64.87c-.3.52-.86.84-1.46.84ZM119.63,275.03l33.97,59.79,34.81-59.79h-68.77Z"/>
        <path class="cls-1" d="M191.27,274.94h0c-.61,0-1.16-.33-1.46-.86l-36.86-64.87c-.3-.52-.29-1.17,0-1.69.3-.52.86-.84,1.46-.84h74.63c.61,0,1.17.32,1.47.85s.3,1.17,0,1.7l-37.77,64.87c-.3.52-.86.84-1.46.84ZM157.32,210.06l33.97,59.79,34.81-59.79h-68.77Z"/>
        <path class="cls-1" d="M116.63,274.94h0c-.61,0-1.16-.33-1.46-.86l-36.86-64.87c-.3-.52-.29-1.17,0-1.69.3-.52.86-.84,1.46-.84h74.63c.61,0,1.17.32,1.47.85s.3,1.17,0,1.7l-37.77,64.87c-.3.52-.86.84-1.46.84ZM82.69,210.06l33.97,59.79,34.81-59.79h-68.77Z"/>
        <path class="cls-1" d="M228.99,210.03h0c-.61,0-1.16-.33-1.46-.86l-36.86-64.87c-.3-.52-.29-1.17,0-1.69.3-.52.86-.84,1.46-.84h74.62c.61,0,1.17.32,1.47.85s.3,1.17,0,1.7l-37.77,64.87c-.3.52-.86.84-1.46.84ZM195.04,145.15l33.97,59.79,34.81-59.79h-68.77Z"/>
        <path class="cls-1" d="M192.13,145.15h-74.62c-.61,0-1.17-.32-1.47-.85s-.3-1.17,0-1.7l37.77-64.87c.3-.52.86-.84,1.46-.84h0c.61,0,1.16.33,1.46.86l36.86,64.87c.3.52.29,1.17,0,1.69-.3.52-.86.84-1.46.84ZM120.45,141.77h68.77l-33.97-59.79-34.81,59.79Z"/>
        <path class="cls-1" d="M266.76,145.15h-74.62c-.61,0-1.17-.32-1.47-.85s-.3-1.17,0-1.7l37.77-64.87c.3-.52.86-.84,1.46-.84h0c.61,0,1.16.33,1.46.86l36.86,64.87c.3.52.29,1.17,0,1.69-.3.52-.86.84-1.46.84ZM195.07,141.77h68.77l-33.97-59.79-34.81,59.79Z"/>
        <path class="cls-1" d="M192.13,145.16h0c-.61,0-1.16-.33-1.46-.86l-36.86-64.87c-.3-.52-.29-1.17,0-1.69.3-.52.86-.84,1.46-.84h74.62c.61,0,1.17.32,1.47.85s.3,1.17,0,1.7l-37.77,64.87c-.3.52-.86.84-1.46.84ZM158.18,80.28l33.97,59.79,34.81-59.79h-68.77Z"/>
        <path class="cls-1" d="M154.35,210.03h-74.62c-.61,0-1.17-.32-1.47-.85s-.3-1.17,0-1.7l37.77-64.87c.3-.52.86-.84,1.46-.84h0c.61,0,1.16.33,1.46.86l36.86,64.87c.3.52.29,1.17,0,1.69-.3.52-.86.84-1.46.84ZM82.67,206.64h68.77l-33.97-59.79-34.81,59.79Z"/>
        <path class="cls-1" d="M228.99,210.03h-74.62c-.61,0-1.17-.32-1.47-.85s-.3-1.17,0-1.7l37.77-64.87c.3-.52.86-.84,1.46-.84h0c.61,0,1.16.33,1.46.86l36.86,64.87c.3.52.29,1.17,0,1.69-.3.52-.86.84-1.46.84ZM157.31,206.64h68.77l-33.97-59.79-34.81,59.79Z"/>
        <path class="cls-1" d="M154.36,210.03h0c-.61,0-1.16-.33-1.46-.86l-36.86-64.87c-.3-.52-.29-1.17,0-1.69.3-.52.86-.84,1.46-.84h74.62c.61,0,1.17.32,1.47.85s.3,1.17,0,1.7l-37.77,64.87c-.3.52-.86.84-1.46.84ZM120.41,145.15l33.97,59.79,34.81-59.79h-68.77Z"/>
        <path class="cls-1" d="M265.9,274.94h-74.63c-.61,0-1.17-.32-1.47-.85s-.3-1.17,0-1.7l37.77-64.87c.3-.52.86-.84,1.46-.84h0c.61,0,1.16.33,1.46.86l36.86,64.87c.3.52.29,1.17,0,1.69-.3.52-.86.84-1.46.84ZM194.22,271.55h68.77l-33.97-59.79-34.81,59.79Z"/>
        <path class="cls-1" d="M191.26,274.94h-74.63c-.61,0-1.17-.32-1.47-.85s-.3-1.17,0-1.7l37.77-64.87c.3-.52.86-.84,1.46-.84h0c.61,0,1.16.33,1.46.86l36.86,64.87c.3.52.29,1.17,0,1.69-.3.52-.86.84-1.46.84ZM119.58,271.55h68.77l-33.97-59.79-34.81,59.79Z"/>
        <path class="cls-1" d="M228.21,339.91h-74.62c-.61,0-1.17-.32-1.47-.85s-.3-1.17,0-1.7l37.77-64.87c.3-.52.86-.84,1.46-.84h0c.61,0,1.16.33,1.46.86l36.86,64.87c.3.52.29,1.17,0,1.69-.3.52-.86.84-1.46.84ZM156.53,336.52h68.77l-33.97-59.79-34.81,59.79Z"/>
        <path class="cls-1" d="M228.22,339.91h0c-.61,0-1.16-.33-1.46-.86l-36.86-64.87c-.3-.52-.29-1.17,0-1.69.3-.52.86-.84,1.46-.84h74.62c.61,0,1.17.32,1.47.85s.3,1.17,0,1.7l-37.77,64.87c-.3.52-.86.84-1.46.84ZM194.27,275.03l33.97,59.79,34.81-59.79h-68.77Z"/>
        <path class="cls-1" d="M413.3,207.61h-74.62c-.61,0-1.17-.32-1.47-.85s-.3-1.17,0-1.7l37.77-64.87c.3-.52.86-.84,1.46-.84h0c.61,0,1.16.33,1.46.86l36.86,64.87c.3.52.29,1.17,0,1.69-.3.52-.86.84-1.46.84ZM341.62,204.22h68.77l-33.97-59.79-34.81,59.79Z"/>
        <path class="cls-1" d="M375.62,272.58h-74.62c-.61,0-1.17-.32-1.47-.85s-.3-1.17,0-1.7l37.77-64.87c.3-.52.86-.84,1.46-.84h0c.61,0,1.16.33,1.46.86l36.86,64.87c.3.52.29,1.17,0,1.69-.3.52-.86.84-1.46.84ZM303.94,269.19h68.77l-33.97-59.79-34.81,59.79Z"/>
        <path class="cls-1" d="M450.25,272.58h-74.62c-.61,0-1.17-.32-1.47-.85s-.3-1.17,0-1.7l37.77-64.87c.3-.52.86-.84,1.46-.84h0c.61,0,1.16.33,1.46.86l36.86,64.87c.3.52.29,1.17,0,1.69-.3.52-.86.84-1.46.84ZM378.57,269.19h68.77l-33.97-59.79-34.81,59.79Z"/>
        <path class="cls-1" d="M337.9,337.49h-74.63c-.61,0-1.17-.32-1.47-.85s-.3-1.17,0-1.7l37.77-64.87c.3-.52.86-.84,1.46-.84h0c.61,0,1.16.33,1.46.86l36.86,64.87c.3.52.29,1.17,0,1.69-.3.52-.86.84-1.46.84ZM266.21,334.1h68.77l-33.97-59.79-34.81,59.79Z"/>
        <path class="cls-1" d="M374.76,402.36h0c-.61,0-1.16-.33-1.46-.86l-36.86-64.87c-.3-.52-.29-1.17,0-1.69.3-.52.86-.84,1.46-.84h74.62c.61,0,1.17.32,1.47.85s.3,1.17,0,1.7l-37.77,64.87c-.3.52-.86.84-1.46.84ZM340.81,337.49l33.97,59.79,34.81-59.79h-68.77Z"/>
        <path class="cls-1" d="M300.13,402.36h0c-.61,0-1.16-.33-1.46-.86l-36.86-64.87c-.3-.52-.29-1.17,0-1.69.3-.52.86-.84,1.46-.84h74.63c.61,0,1.17.32,1.47.85s.3,1.17,0,1.7l-37.77,64.87c-.3.52-.86.84-1.46.84ZM266.18,337.49l33.97,59.79,34.81-59.79h-68.77Z"/>
        <path class="cls-1" d="M374.75,402.36h-74.63c-.61,0-1.17-.32-1.47-.85s-.3-1.17,0-1.7l37.77-64.87c.3-.52.86-.84,1.46-.84h0c.61,0,1.16.33,1.46.86l36.86,64.87c.3.52.29,1.17,0,1.69-.3.52-.86.84-1.46.84ZM303.07,398.97h68.77l-33.97-59.79-34.81,59.79Z"/>
        <path class="cls-1" d="M412.53,337.49h0c-.61,0-1.16-.33-1.46-.86l-36.86-64.87c-.3-.52-.29-1.17,0-1.69.3-.52.86-.84,1.46-.84h74.62c.61,0,1.17.32,1.47.85s.3,1.17,0,1.7l-37.77,64.87c-.3.52-.86.84-1.46.84ZM378.58,272.61l33.97,59.79,34.81-59.79h-68.77Z"/>
        <path class="cls-1" d="M337.9,337.49h0c-.61,0-1.16-.33-1.46-.86l-36.86-64.87c-.3-.52-.29-1.17,0-1.69.3-.52.86-.84,1.46-.84h74.63c.61,0,1.17.32,1.47.85s.3,1.17,0,1.7l-37.77,64.87c-.3.52-.86.84-1.46.84ZM303.95,272.61l33.97,59.79,34.81-59.79h-68.77Z"/>
        <path class="cls-1" d="M412.53,337.49h-74.62c-.61,0-1.17-.32-1.47-.85s-.3-1.17,0-1.7l37.77-64.87c.3-.52.86-.84,1.46-.84h0c.61,0,1.16.33,1.46.86l36.86,64.87c.3.52.29,1.17,0,1.69-.3.52-.86.84-1.46.84ZM340.85,334.1h68.77l-33.97-59.79-34.81,59.79Z"/>
        <path class="cls-1" d="M300.99,272.58h0c-.61,0-1.16-.33-1.46-.86l-36.86-64.87c-.3-.52-.29-1.17,0-1.69.3-.52.86-.84,1.46-.84h74.62c.61,0,1.17.32,1.47.85s.3,1.17,0,1.7l-37.77,64.87c-.3.52-.86.84-1.46.84ZM267.04,207.7l33.97,59.79,34.81-59.79h-68.77Z"/>
        <path class="cls-1" d="M375.62,272.58h0c-.61,0-1.16-.33-1.46-.86l-36.86-64.87c-.3-.52-.29-1.17,0-1.69.3-.52.86-.84,1.46-.84h74.62c.61,0,1.17.32,1.47.85s.3,1.17,0,1.7l-37.77,64.87c-.3.52-.86.84-1.46.84ZM341.67,207.7l33.97,59.79,34.81-59.79h-68.77Z"/>
        <path class="cls-1" d="M338.67,207.61h0c-.61,0-1.16-.33-1.46-.86l-36.86-64.87c-.3-.52-.29-1.17,0-1.69.3-.52.86-.84,1.46-.84h74.62c.61,0,1.17.32,1.47.85s.3,1.17,0,1.7l-37.77,64.87c-.3.52-.86.84-1.46.84ZM304.72,142.73l33.97,59.79,34.81-59.79h-68.77Z"/>
        <path class="cls-1" d="M338.67,207.61h-74.62c-.61,0-1.17-.32-1.47-.85s-.3-1.17,0-1.7l37.77-64.87c.3-.52.86-.84,1.46-.84h0c.61,0,1.16.33,1.46.86l36.86,64.87c.3.52.29,1.17,0,1.69-.3.52-.86.84-1.46.84ZM266.99,204.22h68.77l-33.97-59.79-34.81,59.79Z"/>
      </g>
      <g>
        <path class="cls-2" d="M599.98,214.93c7.46-5.31,11.2-12.69,11.2-22.16,0-6.41-1.52-11.83-4.57-16.24-3.05-4.42-7.23-7.78-12.54-10.09-.96-.42-1.97-.75-2.98-1.09,4.29-2.25,7.76-5.25,10.31-9.08,2.84-4.26,4.26-9.28,4.26-15.06,0-8.62-3.5-15.56-10.49-20.81-6.99-5.25-17.42-7.88-31.3-7.88h-53.93v110.38h57.08c14.51,0,25.49-2.65,32.96-7.96ZM560.72,131.75c6.2,0,10.96,1.05,14.27,3.15,3.31,2.1,4.97,5.36,4.97,9.78s-1.66,7.7-4.97,9.86c-3.31,2.16-8.07,3.23-14.27,3.23h-25.39v-26.02h25.39ZM535.33,203.66v-27.28h29.96c6.52,0,11.51,1.1,14.98,3.31,3.47,2.21,5.2,5.68,5.2,10.41s-1.73,8.04-5.2,10.25c-3.47,2.21-8.46,3.31-14.98,3.31h-29.96Z"/>
        <path class="cls-2" d="M659.9,173.22c-8.73,0-15.77,1.05-21.13,3.15-5.36,2.1-9.28,5.07-11.75,8.91-2.47,3.84-3.71,8.23-3.71,13.17s1.29,9.2,3.86,13.09c2.58,3.89,6.23,6.97,10.96,9.23,4.73,2.26,10.35,3.39,16.87,3.39,7.46,0,13.56-1.44,18.29-4.34,3.2-1.96,5.71-4.47,7.57-7.51v10.59h23.02v-48.41c0-12.93-3.58-22.44-10.72-28.54-7.15-6.1-17.19-9.15-30.12-9.15-6.73,0-13.35.87-19.87,2.6-6.52,1.73-12.09,4.28-16.72,7.65l8.67,17.19c3.15-2.42,6.91-4.34,11.27-5.76,4.36-1.42,8.8-2.13,13.32-2.13,6.62,0,11.54,1.47,14.74,4.42,3.21,2.94,4.81,7.04,4.81,12.3v.16h-19.39ZM672.28,204.76c-3.31,1.89-7.07,2.84-11.28,2.84s-7.54-.92-10.01-2.76c-2.47-1.84-3.71-4.34-3.71-7.49,0-2.84,1.08-5.2,3.23-7.1,2.15-1.89,6.12-2.84,11.9-2.84h16.87v8.67c-1.37,3.89-3.71,6.78-7.02,8.67Z"/>
        <path class="cls-2" d="M750.73,182.84c0-8.09,2.05-14.09,6.15-17.98,4.1-3.89,9.62-5.84,16.56-5.84.84,0,1.71.06,2.6.16.89.11,1.81.26,2.76.47v-22.86c-7.99,0-14.77,1.55-20.34,4.65-3.57,1.99-6.51,4.58-8.83,7.76v-11.15h-23.5v84.84h24.6v-40.05Z"/>
        <path class="cls-2" d="M841.4,159.03c.84,0,1.71.06,2.6.16.89.11,1.81.26,2.76.47v-22.86c-7.99,0-14.77,1.55-20.34,4.65-3.57,1.99-6.51,4.58-8.83,7.76v-11.15h-23.5v84.84h24.6v-40.05c0-8.09,2.05-14.09,6.15-17.98,4.1-3.89,9.62-5.84,16.56-5.84Z"/>
        <rect class="cls-2" x="862.06" y="138.06" width="24.6" height="84.84"/>
        <path class="cls-2" d="M874.36,98.79c-4.63,0-8.36,1.32-11.2,3.94-2.84,2.63-4.26,5.89-4.26,9.78s1.42,7.15,4.26,9.78c2.84,2.63,6.57,3.94,11.2,3.94s8.36-1.34,11.2-4.02c2.84-2.68,4.26-6.07,4.26-10.17,0-3.89-1.45-7.07-4.34-9.54-2.89-2.47-6.6-3.71-11.12-3.71Z"/>
        <rect class="cls-2" x="909.52" y="105.89" width="24.6" height="117"/>
        <path class="cls-2" d="M1034.09,210.44l-13.09-14.19c-2.84,2.74-5.97,4.79-9.38,6.15-3.42,1.37-7.33,2.05-11.75,2.05-5.15,0-9.57-.92-13.25-2.76-3.68-1.84-6.57-4.49-8.67-7.96-1.16-1.91-1.96-4.02-2.48-6.31h64.14c.1-1.05.21-2.18.32-3.39.1-1.21.16-2.29.16-3.23,0-9.15-1.95-16.98-5.84-23.5-3.89-6.52-9.17-11.56-15.85-15.14-6.68-3.57-14.17-5.36-22.47-5.36s-16.38,1.87-23.26,5.6c-6.89,3.73-12.25,8.91-16.08,15.53-3.84,6.62-5.76,14.14-5.76,22.55s1.99,15.9,5.99,22.47c3.99,6.57,9.62,11.75,16.87,15.53,7.25,3.78,15.71,5.68,25.39,5.68,7.67,0,14.45-1.18,20.34-3.55,5.89-2.37,10.77-5.76,14.67-10.17ZM984.97,158.16c3.21-1.84,6.91-2.76,11.12-2.76s7.88.92,11.04,2.76c3.15,1.84,5.62,4.39,7.41,7.65,1.18,2.16,1.91,4.59,2.26,7.25h-41.62c.41-2.63,1.15-5.04,2.3-7.17,1.79-3.31,4.28-5.89,7.49-7.73Z"/>
        <path class="cls-2" d="M1102.14,222.82c3.52-.89,6.49-2.23,8.91-4.02l-6.47-17.35c-2.73,2.1-6.1,3.15-10.09,3.15-3.15,0-5.65-1-7.49-3-1.84-1.99-2.76-4.78-2.76-8.36v-34.38h20.97v-18.92h-20.97v-20.66h-24.76v20.66h-13.09v18.92h13.09v34.85c0,10.09,2.78,17.69,8.36,22.79,5.57,5.1,13.35,7.65,23.34,7.65,3.79,0,7.44-.45,10.96-1.34Z"/>
        <path class="cls-2" d="M1202.19,210.44l-13.09-14.19c-2.84,2.74-5.97,4.79-9.38,6.15-3.42,1.37-7.33,2.05-11.75,2.05-5.15,0-9.57-.92-13.25-2.76-3.68-1.84-6.57-4.49-8.67-7.96-1.16-1.91-1.96-4.02-2.48-6.31h64.14c.1-1.05.21-2.18.32-3.39.1-1.21.16-2.29.16-3.23,0-9.15-1.95-16.98-5.84-23.5-3.89-6.52-9.17-11.56-15.85-15.14-6.68-3.57-14.17-5.36-22.47-5.36s-16.38,1.87-23.26,5.6c-6.89,3.73-12.25,8.91-16.08,15.53-3.84,6.62-5.76,14.14-5.76,22.55s1.99,15.9,5.99,22.47c3.99,6.57,9.62,11.75,16.87,15.53,7.25,3.78,15.71,5.68,25.39,5.68,7.67,0,14.45-1.18,20.34-3.55,5.89-2.37,10.77-5.76,14.67-10.17ZM1153.07,158.16c3.21-1.84,6.91-2.76,11.12-2.76s7.88.92,11.04,2.76c3.15,1.84,5.62,4.39,7.41,7.65,1.18,2.16,1.91,4.59,2.26,7.25h-41.62c.41-2.63,1.15-5.04,2.3-7.17,1.79-3.31,4.28-5.89,7.49-7.73Z"/>
        <polygon class="cls-2" points="556.6 339.35 523.03 260.51 495.27 260.51 543.05 370.89 568.28 370.89 616.06 260.51 590.68 260.51 556.6 339.35"/>
        <path class="cls-2" d="M687.26,290.16c-6.68-3.57-14.17-5.36-22.47-5.36s-16.38,1.87-23.26,5.6c-6.89,3.73-12.25,8.91-16.08,15.53-3.84,6.62-5.76,14.14-5.76,22.55s1.99,15.9,5.99,22.47c3.99,6.57,9.62,11.75,16.87,15.53,7.25,3.78,15.71,5.68,25.39,5.68,7.67,0,14.45-1.18,20.34-3.55,5.89-2.37,10.77-5.76,14.67-10.17l-13.09-14.19c-2.84,2.74-5.97,4.79-9.38,6.15-3.42,1.37-7.33,2.05-11.75,2.05-5.15,0-9.57-.92-13.25-2.76-3.68-1.84-6.57-4.49-8.67-7.96-1.16-1.91-1.96-4.02-2.48-6.31h64.14c.1-1.05.21-2.18.32-3.39.1-1.21.16-2.29.16-3.23,0-9.15-1.95-16.98-5.84-23.5-3.89-6.52-9.17-11.56-15.85-15.14ZM653.83,306.16c3.21-1.84,6.91-2.76,11.12-2.76s7.88.92,11.04,2.76c3.15,1.84,5.62,4.39,7.41,7.65,1.18,2.16,1.91,4.59,2.26,7.25h-41.62c.41-2.63,1.15-5.04,2.3-7.17,1.79-3.31,4.28-5.89,7.49-7.73Z"/>
        <path class="cls-2" d="M794.96,288.82c-5.31-2.68-11.33-4.02-18.06-4.02-7.25,0-13.72,1.53-19.4,4.57-3.37,1.81-6.23,4.15-8.67,6.89v-10.2h-23.5v84.84h24.6v-41.94c0-5.36.87-9.67,2.6-12.93,1.73-3.26,4.15-5.73,7.25-7.41,3.1-1.68,6.6-2.52,10.49-2.52,5.46,0,9.7,1.63,12.69,4.89,3,3.26,4.49,8.31,4.49,15.14v44.78h24.6v-48.57c0-8.62-1.53-15.69-4.57-21.21-3.05-5.52-7.23-9.62-12.54-12.3Z"/>
        <path class="cls-2" d="M872.3,352.6c-3.15,0-5.65-1-7.49-3-1.84-1.99-2.76-4.78-2.76-8.36v-34.38h20.97v-18.92h-20.97v-20.66h-24.76v20.66h-13.09v18.92h13.09v34.85c0,10.09,2.78,17.69,8.36,22.79,5.57,5.1,13.35,7.65,23.34,7.65,3.79,0,7.44-.45,10.96-1.34,3.52-.89,6.49-2.23,8.91-4.02l-6.47-17.35c-2.73,2.1-6.1,3.15-10.09,3.15Z"/>
        <path class="cls-2" d="M963.92,328.16c0,5.05-.87,9.25-2.6,12.62-1.73,3.37-4.08,5.89-7.02,7.57-2.94,1.68-6.31,2.52-10.09,2.52-5.47,0-9.7-1.66-12.69-4.97-3-3.31-4.49-8.54-4.49-15.69v-44.15h-24.6v47.94c0,8.62,1.52,15.77,4.57,21.45,3.05,5.68,7.31,9.88,12.77,12.62,5.46,2.73,11.77,4.1,18.92,4.1,6.52,0,12.51-1.5,17.98-4.49,3.25-1.78,6-4.14,8.36-6.94v10.17h23.34v-84.84h-24.44v42.1Z"/>
        <path class="cls-2" d="M1034.72,297.21v-11.15h-23.5v84.84h24.6v-40.05c0-8.09,2.05-14.09,6.15-17.98,4.1-3.89,9.62-5.84,16.56-5.84.84,0,1.71.06,2.6.16.89.11,1.81.26,2.76.47v-22.86c-7.99,0-14.77,1.55-20.34,4.65-3.57,1.99-6.51,4.58-8.83,7.76Z"/>
        <path class="cls-2" d="M1140.61,290.16c-6.68-3.57-14.17-5.36-22.47-5.36s-16.38,1.87-23.26,5.6c-6.89,3.73-12.25,8.91-16.08,15.53-3.84,6.62-5.76,14.14-5.76,22.55s1.99,15.9,5.99,22.47c3.99,6.57,9.62,11.75,16.87,15.53,7.25,3.78,15.71,5.68,25.39,5.68,7.67,0,14.45-1.18,20.34-3.55,5.89-2.37,10.77-5.76,14.67-10.17l-13.09-14.19c-2.84,2.74-5.97,4.79-9.38,6.15-3.42,1.37-7.33,2.05-11.75,2.05-5.15,0-9.57-.92-13.25-2.76-3.68-1.84-6.57-4.49-8.67-7.96-1.16-1.91-1.96-4.02-2.48-6.31h64.14c.1-1.05.21-2.18.32-3.39.1-1.21.16-2.29.16-3.23,0-9.15-1.95-16.98-5.84-23.5-3.89-6.52-9.17-11.56-15.85-15.14ZM1107.18,306.16c3.21-1.84,6.91-2.76,11.12-2.76s7.88.92,11.04,2.76c3.15,1.84,5.62,4.39,7.41,7.65,1.18,2.16,1.91,4.59,2.26,7.25h-41.62c.41-2.63,1.15-5.04,2.3-7.17,1.79-3.31,4.28-5.89,7.49-7.73Z"/>
        <path class="cls-2" d="M1244.53,333.52c-1.84-3.05-4.31-5.44-7.41-7.17-3.1-1.73-6.44-3.07-10.01-4.02-3.57-.95-7.2-1.68-10.88-2.21-3.68-.52-7.04-1.05-10.09-1.58-3.05-.53-5.52-1.34-7.41-2.45-1.89-1.1-2.84-2.71-2.84-4.81,0-2.31,1.26-4.2,3.78-5.68,2.52-1.47,6.62-2.21,12.3-2.21,3.78,0,7.75.47,11.91,1.42,4.15.95,8.22,2.58,12.22,4.89l8.36-17.5c-4.1-2.31-9.12-4.12-15.06-5.44-5.94-1.31-11.85-1.97-17.74-1.97-8.2,0-15.19,1.16-20.97,3.47-5.78,2.31-10.25,5.55-13.4,9.7-3.15,4.15-4.73,8.91-4.73,14.27,0,4.84.92,8.78,2.76,11.83,1.84,3.05,4.31,5.44,7.41,7.18,3.1,1.73,6.46,3.07,10.09,4.02,3.63.95,7.28,1.68,10.96,2.21,3.68.53,7.02,1.05,10.01,1.58,3,.53,5.41,1.29,7.25,2.29,1.84,1,2.76,2.5,2.76,4.49,0,2.42-1.18,4.31-3.55,5.68-2.37,1.37-6.39,2.05-12.06,2.05-5.15,0-10.38-.76-15.69-2.29-5.31-1.52-9.96-3.44-13.96-5.76l-8.04,17.5c3.99,2.63,9.3,4.81,15.93,6.54,6.62,1.73,13.56,2.6,20.81,2.6,8.51,0,15.74-1.16,21.68-3.47,5.94-2.31,10.49-5.49,13.64-9.54,3.15-4.05,4.73-8.65,4.73-13.8,0-4.83-.92-8.78-2.76-11.83Z"/>
      </g>
    </g>
  </g>
</svg>